<?xml version="1.0" standalone="no"?><!DOCTYPE svg PUBLIC "-//W3C//DTD SVG 1.1//EN" "http://www.w3.org/Graphics/SVG/1.1/DTD/svg11.dtd"><svg t="1551158884432" class="icon" style="" viewBox="0 0 1273 1024" version="1.1" xmlns="http://www.w3.org/2000/svg" p-id="2454" xmlns:xlink="http://www.w3.org/1999/xlink" width="40" height="36"><defs><style type="text/css"></style></defs><path d="M657.12969 447.441c-191.439 0-293.839 100.177-298.292 104.627-4.452 4.45-6.68 8.905-6.68 15.58l0 238.189c0 4.455 2.228 8.91 4.452 13.36 2.228 4.45 73.462 84.59 284.939 84.59 209.249 0 311.649-77.91 316.104-80.14 4.455-4.45 8.905-8.9 8.905-15.58L966.55769 567.649c0-6.675-2.23-11.13-6.68-15.58C955.42969 547.619 848.57469 447.441 657.12969 447.441zM924.25969 792.488c-26.71 17.805-120.205 66.78-282.709 66.78-160.277 0-229.287-48.975-247.094-64.56L394.45669 574.329c22.26-17.81 113.53-84.59 262.674-84.59 149.15 0 244.869 66.78 269.359 86.82l0 215.929L924.25969 792.488zM418.94069 779.128c0 71.235 211.479 73.46 233.739 73.46 24.49 0 233.739-2.225 233.739-73.46s-211.479-73.46-233.739-73.46C628.19269 705.668 418.94069 707.893 418.94069 779.128zM652.67969 810.293c-106.852 0-175.86-20.035-191.442-33.39 15.582-13.355 84.59-33.395 191.442-33.395 106.85 0 175.86 20.04 191.44 33.395C828.53969 792.488 759.52969 810.293 652.67969 810.293zM1258.17369 396.241 670.48969 104.625c-6.68-2.225-11.13-2.225-17.81 0L11.56869 391.789c-6.677 4.452-13.357 11.132-11.13 20.035 0 8.905 6.677 15.585 13.355 17.81l155.827 57.877c-2.227 2.227-2.227 4.452-2.227 8.905l0 102.402c-20.035 8.9-35.617 28.94-35.617 53.42 0 17.81 6.68 33.395 20.035 44.525 0 2.225-2.225 2.225-2.225 4.455l-24.487 117.98c-2.225 6.68 0 13.36 4.452 17.81 4.452 4.45 8.905 6.68 15.582 6.68l89.042 0c6.68 0 13.357-2.23 15.582-8.91 4.452-4.45 4.452-11.13 4.452-17.805l-26.712-117.985c15.582-11.13 24.487-28.94 24.487-48.97 0-26.715-17.81-48.98-42.295-57.88l0-93.497 117.982 42.297c2.225 0 4.45 2.225 6.677 2.225 6.677 0 11.13-2.225 15.582-6.675 2.225-2.23 126.887-129.115 304.977-129.115 180.31 0 311.649 129.115 313.874 129.115 6.675 6.675 15.585 6.675 22.26 4.45l267.129-111.305c6.68-2.228 13.355-11.13 13.355-17.81C1271.52869 407.374 1267.07869 400.694 1258.17369 396.241zM171.84669 803.618l17.81-82.37 17.807 80.14-35.617 0L171.84669 803.618zM191.88069 670.048c-8.905 0-17.807-8.9-17.807-17.81 0-8.9 8.902-17.805 17.807-17.805 8.905 0 17.81 8.905 17.81 17.805C209.69069 663.373 203.01069 670.048 191.88069 670.048zM986.58869 500.869c-35.615-31.165-162.5-131.34-331.679-131.34-169.187 0-291.619 100.175-325.012 133.565L76.12369 409.599l585.461-262.677 538.714 267.129L986.58869 500.869z" p-id="2455" fill="#f4ea2a"></path></svg>